<?xml version="1.0" encoding="utf-8"?>
<!-- Generator: Adobe Illustrator 16.0.0, SVG Export Plug-In . SVG Version: 6.00 Build 0)  -->
<!DOCTYPE svg PUBLIC "-//W3C//DTD SVG 1.1//EN" "http://www.w3.org/Graphics/SVG/1.1/DTD/svg11.dtd">
<svg version="1.1" id="Layer_1" xmlns="http://www.w3.org/2000/svg" xmlns:xlink="http://www.w3.org/1999/xlink" x="0px" y="0px"
	 width="269.788px" height="72.131px" viewBox="0 0 269.788 72.131" enable-background="new 0 0 269.788 72.131"
	 xml:space="preserve">
<path fill="#418BCA" d="M6.386,37.688c0-3.665-2.722-6.7-6.386-7.537V22.3h6.386V10.784h11.62V22.3h18.217v10.363h-22.09v3.561
	c2.513,0.732,3.873,2.93,3.873,5.863v19.574h18.217v10.47H11.515c-2.616,0-5.129-2.198-5.129-5.235V37.688z"/>
<path fill="#418BCA" d="M130.21,61.661L114.612,45.54l12.04-12.877h7.118V22.3h-8.689c-2.512,0-4.083,0.942-5.129,1.989
	l-15.39,16.854h-2.407V5.13c0-2.512-2.199-5.13-5.13-5.13H84.147v10.47h6.386v51.191h-5.895h-0.596H50.317V49.729h4.188
	c0.523,2.721,2.513,3.663,5.024,3.663h20.31c3.036,0,5.235-2.198,5.235-5.235V27.638c0-3.035-2.199-5.338-5.235-5.338H44.036
	c-2.722,0-5.34,2.303-5.34,5.338v39.258c0,3.037,2.618,5.235,5.34,5.235h40.007h1.03h11.951c2.931,0,5.13-2.198,5.13-5.235V50.984
	h3.035l17.798,19.263c1.569,1.465,3.036,1.884,5.024,1.884h5.758v-10.47H130.21z M50.317,32.663h23.135v10.365H50.317V32.663z"/>
<rect x="198.291" y="0.143" fill="#418BCA" width="11.621" height="12.772"/>
<path fill="#418BCA" d="M206.451,61.661v-3.453c2.617-0.629,3.873-2.722,3.873-4.816V27.638c0-3.035-2.304-5.338-5.13-5.338h-12.98
	v10.363h6.489v24.184c0,3.559-2.512,3.635-6.489,4.682v10.603h24.602h12.981c2.932,0,5.13-2.198,5.13-5.235V50.984h3.035
	l17.798,19.263c1.57,1.465,3.036,1.884,5.024,1.884h9.004v-10.47h-6.805l-15.6-16.121l12.04-12.877h7.119V22.3h-8.69
	c-2.512,0-4.082,0.942-5.129,1.989l-15.39,16.854h-2.407V5.13c0-2.512-2.198-5.13-5.13-5.13h-12.877v10.47h6.386v51.191"/>
<path fill="#418BCA" d="M183.249,61.661V27.638c0-3.035-2.721-5.338-5.548-5.338h-25.754l-4.71,7.747h-0.209v-2.514
	c0-2.093-1.676-5.233-5.444-5.233l-5.34-0.135v10.498v21.59v2.594v15.284h18.217v-10.47h-10.469v-3.453
	c2.617-0.629,3.873-2.722,3.873-4.816V40.2c0-4.396,3.455-7.537,7.852-7.537h15.912v34.232c0,3.037,2.408,5.235,5.235,5.235h12.876
	v-10.47H183.249z"/>
</svg>
